<svg width="24" height="24" viewBox="0 0 24 24" fill="none" xmlns="http://www.w3.org/2000/svg">
<path d="M0 2C0 0.895432 0.895431 0 2 0H8.28571C9.39028 0 10.2857 0.895431 10.2857 2V8.28571C10.2857 9.39028 9.39028 10.2857 8.28571 10.2857H2C0.895432 10.2857 0 9.39028 0 8.28571V2Z" fill="#333333"/>
<path d="M13.7142 2C13.7142 0.895432 14.6097 0 15.7142 0H21.9999C23.1045 0 23.9999 0.895431 23.9999 2V8.28571C23.9999 9.39028 23.1045 10.2857 21.9999 10.2857H15.7142C14.6097 10.2857 13.7142 9.39028 13.7142 8.28571V2Z" fill="#333333"/>
<path d="M0 15.7139C0 14.6093 0.895431 13.7139 2 13.7139H8.28571C9.39028 13.7139 10.2857 14.6093 10.2857 15.7139V21.9996C10.2857 23.1041 9.39028 23.9996 8.28571 23.9996H2C0.895432 23.9996 0 23.1042 0 21.9996V15.7139Z" fill="#333333"/>
<path d="M13.7142 15.7139C13.7142 14.6093 14.6097 13.7139 15.7142 13.7139H21.9999C23.1045 13.7139 23.9999 14.6093 23.9999 15.7139V21.9996C23.9999 23.1041 23.1045 23.9996 21.9999 23.9996H15.7142C14.6097 23.9996 13.7142 23.1042 13.7142 21.9996V15.7139Z" fill="#333333"/>
</svg>
