<svg width="34" height="34" viewBox="0 0 34 34" fill="none" xmlns="http://www.w3.org/2000/svg">
<rect x="1" y="1" width="32" height="32" rx="16" fill="white" stroke="black" stroke-width="2"/>
<path d="M18.2168 9.22563L18.2168 9.22563L15.7417 11.7007C15.7417 11.7007 15.7417 11.7007 15.7417 11.7007C13.934 13.5085 13.934 16.4504 15.7416 18.2583C15.9568 18.4731 16.2417 18.5912 16.5453 18.5912C16.8488 18.5912 17.1337 18.4732 17.3489 18.2583C17.792 17.8152 17.792 17.094 17.3489 16.651L17.4196 16.5803L17.3489 16.651C16.4271 15.7293 16.4271 14.2297 17.3489 13.3081L19.824 10.833C20.2695 10.3875 20.8637 10.1419 21.4955 10.1419C22.1273 10.1419 22.7215 10.3875 23.167 10.833C24.0888 11.7547 24.0888 13.2542 23.167 14.176L21.5171 15.826C21.5171 15.826 21.5171 15.826 21.5171 15.826C21.3023 16.0408 21.1841 16.326 21.1841 16.6297C21.1841 16.9335 21.3023 17.2186 21.517 17.4334C21.7322 17.6482 22.0171 17.7662 22.3206 17.7662L18.2168 9.22563ZM18.2168 9.22563C19.0912 8.35103 20.2552 7.86953 21.4955 7.86953C22.7358 7.86953 23.8998 8.35103 24.7741 9.22563L24.7742 9.22563M18.2168 9.22563L24.7742 9.22563M24.7742 9.22563C26.5819 11.0335 26.5819 13.9754 24.7742 15.7832L23.1242 17.4333L23.1242 17.4333M24.7742 9.22563L23.1242 17.4333M23.1242 17.4333C22.9095 17.648 22.6246 17.7661 22.3206 17.7662L23.1242 17.4333Z" fill="black" stroke="white" stroke-width="0.2"/>
<path d="M10.3782 23.6217L10.3782 23.6217C11.2525 24.4963 12.4165 24.9778 13.6568 24.9778C14.8971 24.9778 16.0611 24.4963 16.9355 23.6217L16.9355 23.6217L19.4106 21.1466C21.2183 19.3388 21.2183 16.3969 19.4106 14.5889C19.1959 14.3742 18.9106 14.2563 18.607 14.2563C18.3035 14.2563 18.0181 14.3743 17.8035 14.589L17.8035 14.589C17.5887 14.8039 17.4705 15.089 17.4705 15.3927C17.4705 15.6964 17.5887 15.9815 17.8035 16.1964C18.7252 17.1181 18.7252 18.6176 17.8035 19.5393L15.3284 22.0144C15.3284 22.0144 15.3284 22.0144 15.3284 22.0144C14.8829 22.46 14.2886 22.7054 13.6568 22.7054C13.025 22.7054 12.4308 22.4599 11.9853 22.0144C11.9853 22.0144 11.9853 22.0144 11.9853 22.0144L12.056 21.9437C11.1733 21.061 11.1733 19.6248 12.056 18.7423L10.3782 23.6217ZM10.3782 23.6217C8.57043 21.8139 8.57043 18.872 10.3782 17.0641C10.3782 17.0641 10.3782 17.0641 10.3782 17.0641L11.6159 15.8265L11.6159 15.8265C11.8306 15.6118 12.1159 15.4937 12.4195 15.4937C12.723 15.4937 13.0084 15.6118 13.223 15.8267L13.2231 15.8267C13.4378 16.0414 13.5561 16.3265 13.5561 16.6302C13.5561 16.934 13.4378 17.2192 13.2231 17.434L10.3782 23.6217ZM17.7328 19.4686C18.6155 18.5859 18.6155 17.1497 17.7328 16.2671C17.4993 16.0335 17.3705 15.723 17.3705 15.3927C17.3705 15.0624 17.4993 14.7519 17.7328 14.5183V19.4686Z" fill="black" stroke="white" stroke-width="0.2"/>
</svg>
