<svg width="15" height="15" viewBox="0 0 15 15" fill="none" xmlns="http://www.w3.org/2000/svg">
<path d="M5.44063 1.40625C5.44063 1.24919 5.31331 1.12187 5.15625 1.12187C4.99919 1.12187 4.87187 1.24919 4.87187 1.40625C4.87187 3.57915 3.1104 5.34062 0.9375 5.34062C0.780444 5.34062 0.653125 5.46794 0.653125 5.625C0.653125 5.78206 0.780444 5.90938 0.9375 5.90938C3.1104 5.90938 4.87187 7.67085 4.87187 9.84375C4.87187 10.0008 4.99919 10.1281 5.15625 10.1281C5.31331 10.1281 5.44063 10.0008 5.44063 9.84375C5.44063 7.67085 7.2021 5.90938 9.375 5.90938C9.53206 5.90938 9.65938 5.78206 9.65938 5.625C9.65938 5.46794 9.53206 5.34062 9.375 5.34062C7.2021 5.34062 5.44063 3.57915 5.44063 1.40625ZM7.79666 5.625C6.57929 6.08065 5.6119 7.04804 5.15625 8.26541C4.7006 7.04804 3.73321 6.08065 2.51584 5.625C3.73321 5.16935 4.7006 4.20196 5.15625 2.98459C5.6119 4.20196 6.57929 5.16935 7.79666 5.625Z" fill="white" stroke="white" stroke-width="0.1"/>
<path d="M7.43281 9.375C7.43281 9.21794 7.3055 9.09062 7.14844 9.09062C6.99138 9.09062 6.86406 9.21794 6.86406 9.375C6.86406 10.4476 5.99451 11.3172 4.92188 11.3172C4.76482 11.3172 4.6375 11.4445 4.6375 11.6016C4.6375 11.7587 4.76482 11.8859 4.92188 11.8859C5.99451 11.8859 6.86406 12.7555 6.86406 13.8281C6.86406 13.9852 6.99138 14.1125 7.14844 14.1125C7.30549 14.1125 7.43281 13.9852 7.43281 13.8281C7.43281 12.7555 8.30236 11.8859 9.375 11.8859C9.53205 11.8859 9.65938 11.7587 9.65938 11.6016C9.65938 11.4445 9.53206 11.3172 9.375 11.3172C8.30236 11.3172 7.43281 10.4476 7.43281 9.375ZM8.21321 11.6016C7.75873 11.8392 7.38606 12.2118 7.14844 12.6663C6.91082 12.2118 6.53815 11.8392 6.08366 11.6016C6.53815 11.3639 6.91082 10.9913 7.14844 10.5368C7.38606 10.9913 7.75872 11.3639 8.21321 11.6016Z" fill="white" stroke="white" stroke-width="0.1"/>
<path d="M11.593 5.80078C11.593 5.64372 11.4657 5.51641 11.3086 5.51641C11.1515 5.51641 11.0242 5.64372 11.0242 5.80078C11.0242 7.03523 10.0235 8.03594 8.78906 8.03594C8.632 8.03594 8.50469 8.16325 8.50469 8.32031C8.50469 8.47737 8.632 8.60469 8.78906 8.60469C10.0235 8.60469 11.0242 9.6054 11.0242 10.8398C11.0242 10.9969 11.1515 11.1242 11.3086 11.1242C11.4657 11.1242 11.593 10.9969 11.593 10.8398C11.593 9.60539 12.5936 8.60469 13.8281 8.60469C13.9852 8.60469 14.1125 8.47737 14.1125 8.32031C14.1125 8.16326 13.9852 8.03594 13.8281 8.03594C12.5936 8.03594 11.593 7.03523 11.593 5.80078ZM11.3086 9.60805C11.0347 9.04881 10.5801 8.59423 10.0209 8.32031C10.5801 8.0464 11.0347 7.59182 11.3086 7.03258C11.5825 7.59182 12.0371 8.0464 12.5964 8.32031C12.0371 8.59423 11.5825 9.04881 11.3086 9.60805Z" fill="white" stroke="white" stroke-width="0.1"/>
</svg>
