<svg width="34" height="34" viewBox="0 0 34 34" fill="none" xmlns="http://www.w3.org/2000/svg">
<rect x="1" y="1" width="32" height="32" rx="16" fill="white" stroke="black" stroke-width="2"/>
<path d="M14.8638 13.6167L14.8635 13.617C14.7114 13.7691 14.5051 13.8546 14.2899 13.8546C14.0748 13.8546 13.8684 13.7691 13.7163 13.617C13.5642 13.4648 13.4787 13.2585 13.4787 13.0433C13.4787 12.8283 13.564 12.6221 13.716 12.47C13.7161 12.4699 13.7162 12.4698 13.7163 12.4697L15.9257 10.2249L15.9551 10.195H15.9963C16.1134 10.1021 16.2542 10.0434 16.4031 10.0257L16.4149 10.0243V10.025H16.5495H16.5562L16.5561 10.0252C16.7513 10.0382 16.9351 10.1215 17.0735 10.2596L17.0735 10.2597L19.2835 12.4697L19.2838 12.47C19.3588 12.5455 19.418 12.6351 19.4582 12.7336C19.4984 12.8319 19.5188 12.9371 19.5183 13.0433M14.8638 13.6167L18.207 13.5462M14.8638 13.6167L15.6916 12.783M14.8638 13.6167L15.6916 12.783M19.5183 13.0433C19.5188 13.1495 19.4984 13.2548 19.4582 13.3531C19.418 13.4516 19.3588 13.5411 19.2838 13.6167C19.2087 13.6924 19.1193 13.7526 19.0208 13.7936C18.9223 13.8346 18.8166 13.8558 18.7099 13.8558C18.6032 13.8558 18.4976 13.8346 18.3991 13.7936C18.3005 13.7526 18.2111 13.6924 18.136 13.6167M19.5183 13.0433C19.5183 13.0435 19.5183 13.0437 19.5183 13.0439L19.4183 13.0433L19.5183 13.0428C19.5183 13.0429 19.5183 13.0431 19.5183 13.0433ZM18.136 13.6167L18.207 13.5462M18.136 13.6167L18.136 13.6167L18.207 13.5462M18.136 13.6167L17.3083 12.783M18.207 13.5462L17.3083 12.6411V12.783M17.3083 12.783V18.625C17.3083 18.8394 17.2231 19.045 17.0715 19.1966C16.9199 19.3482 16.7143 19.4333 16.4999 19.4333C16.2855 19.4333 16.0799 19.3482 15.9283 19.1966C15.7767 19.045 15.6916 18.8394 15.6916 18.625V12.783M17.3083 12.783L17.2083 12.6823V18.625C17.2083 18.8129 17.1336 18.993 17.0008 19.1259C16.8679 19.2587 16.6878 19.3333 16.4999 19.3333C16.3121 19.3333 16.1319 19.2587 15.9991 19.1259C15.8662 18.993 15.7916 18.8129 15.7916 18.625V12.6823M15.6916 12.783V12.6411L15.7916 12.5404V12.6823M15.6916 12.783L15.7916 12.6823M15.6916 12.783L15.7916 12.6823M24.3915 20.8954L24.3916 20.8954V20.8917V15.7917C24.3916 15.5773 24.3064 15.3717 24.1548 15.2201C24.0032 15.0685 23.7976 14.9833 23.5833 14.9833C23.3689 14.9833 23.1633 15.0685 23.0117 15.2201C22.8601 15.3717 22.7749 15.5773 22.7749 15.7917V20.8845C22.7541 21.0238 22.6814 21.1502 22.5714 21.2383C22.4596 21.3277 22.3177 21.3708 22.175 21.3587L22.1751 21.3583H22.1666H10.8333V21.358L10.8248 21.3587C10.6821 21.3708 10.5403 21.3277 10.4285 21.2383C10.3184 21.1502 10.2457 21.0238 10.2249 20.8845V15.7917C10.2249 15.5773 10.1398 15.3717 9.98816 15.2201C9.83657 15.0685 9.63097 14.9833 9.41659 14.9833C9.2022 14.9833 8.9966 15.0685 8.84501 15.2201C8.69342 15.3717 8.60825 15.5773 8.60825 15.7917V20.8917H8.60818L8.60832 20.8954C8.62962 21.4661 8.87592 22.0051 9.29341 22.3948C9.7105 22.7841 10.2646 22.9926 10.8348 22.975H22.165C22.7353 22.9926 23.2893 22.7841 23.7064 22.3948C24.1239 22.0051 24.3702 21.4661 24.3915 20.8954Z" fill="black" stroke="black" stroke-width="0.2"/>
</svg>
